<?xml version="1.0" encoding="UTF-8"?>
<svg width="199px" height="199px" viewBox="0 0 199 199" version="1.1" xmlns="http://www.w3.org/2000/svg" xmlns:xlink="http://www.w3.org/1999/xlink">
    <!-- Generator: Sketch 56.3 (81716) - https://sketch.com -->
    <title>Square-color</title>
    <desc>Created with Sketch.</desc>
    <g id="Square-color" stroke="none" stroke-width="1" fill="none" fill-rule="evenodd">
        <rect fill="#47446B" x="0" y="0" width="199" height="199"></rect>
        <g id="Group" transform="translate(41.299997, 55.199996)">
            <path d="M120.703426,43.2014891 C122.24962,43.2014891 123.375637,43.5348306 124.081508,44.2015236 C124.787376,44.8682166 125.14031,45.7349044 125.14031,46.8016132 C125.14031,48.5350149 124.619318,50.0683858 123.577317,51.4017718 C122.535316,52.7351577 120.905113,53.4351748 118.68666,53.5018441 C113.375817,53.5685134 108.602853,53.1685037 104.367624,52.3018028 C99.6618136,62.2355282 93.9981199,70.4857301 87.3763729,77.0526559 C80.7546258,83.6195818 74.2170091,86.9029954 67.7633267,86.9029954 C61.8474511,86.9029954 57.410611,83.7862525 54.4526732,77.5526731 C51.4947354,71.3190938 49.8141142,62.9688895 49.410759,52.5018097 C45.3772277,64.1022675 40.8227239,72.7358121 35.7471716,78.4027024 C30.6716193,84.0695928 25.276825,86.9029954 19.562627,86.9029954 C13.1089446,86.9029954 8.23514298,82.9195646 4.9410759,74.9525835 C1.64700883,66.9856024 0,56.2686735 0,42.8014753 C0,33.0010885 0.873923053,22.2341584 2.62179538,10.5003619 C3.09237639,7.16689703 3.94949323,4.85017368 5.19317161,3.55012237 C6.43685,2.25007106 8.40317687,1.60005515 11.0922112,1.60005515 C13.108987,1.60005515 14.6719647,2.03339909 15.7811914,2.90009996 C16.8904181,3.76680084 17.4450231,5.36683999 17.4450231,7.70026542 C17.4450231,8.16695051 17.3777982,9.06697253 17.2433465,10.4003585 C15.2265708,24.0675646 14.218198,35.7011826 14.218198,45.3015615 C14.218198,54.2352474 14.9912838,61.1354163 16.5374785,66.002275 C18.0836733,70.8691338 20.1676567,73.3025267 22.7894521,73.3025267 C25.1423572,73.3025267 27.9826071,70.8524667 31.3102871,65.9522733 C34.6379671,61.0520799 37.948791,53.7852354 41.2428581,44.1515219 C44.5369251,34.5178083 47.3267564,23.034194 49.6124356,9.70033436 C50.1502425,6.63354665 51.141809,4.51682819 52.587165,3.35011547 C54.0325209,2.18340276 55.9988478,1.60005515 58.4862046,1.60005515 C60.5702062,1.60005515 62.0995715,2.05006616 63.0743465,2.95010169 C64.0491214,3.85013721 64.5365016,5.20017024 64.5365016,7.00024129 C64.5365016,8.06695006 64.4692767,8.90030378 64.334825,9.50032746 C62.452501,20.367423 61.5113531,31.2343556 61.5113531,42.1014512 C61.5113531,49.5017433 61.7634488,55.4018876 62.2676402,59.8020613 C62.7718341,64.202235 63.7465945,67.5523169 65.1919504,69.8524077 C66.6373064,72.1524985 68.738083,73.3025267 71.4943432,73.3025267 C74.7211844,73.3025267 78.3177139,70.8858008 82.2840395,66.0522767 C86.2503652,61.2187526 89.8805071,55.2019387 93.1745742,48.0016546 C89.0737968,45.4682212 85.9814537,42.1848076 83.8974521,38.151315 C81.8134505,34.1178225 80.7714653,29.4677087 80.7714653,24.2008342 C80.7714653,18.9339596 81.5949697,14.4838507 83.2420032,10.850374 C84.8890368,7.21689726 87.1410692,4.50016412 89.9981682,2.70009307 C92.8552672,0.900022023 96.0316414,0 99.5273861,0 C103.829841,0 107.241502,1.53337085 109.762472,4.60015856 C112.283442,7.66694627 113.543907,11.867049 113.543907,17.2005929 C113.543907,24.7342236 111.896899,33.101095 108.602832,42.3014581 C112.03135,42.9014818 116.064841,43.2014891 120.703426,43.2014891 Z M90.9561319,23.50081 C90.9561319,30.0344013 93.0737147,34.8678529 97.3089438,38.0013099 C99.9307523,30.5343485 101.241637,24.3675309 101.241637,19.5006722 C101.241637,16.7005616 100.8719,14.6505115 100.132416,13.3504602 C99.3929313,12.0504089 98.3845586,11.400393 97.1072672,11.400393 C95.2921691,11.400393 93.8132224,12.4504187 92.6703828,14.5505015 C91.5275432,16.6505844 90.9561319,19.6339908 90.9561319,23.50081 Z" id="Wellmade" fill="#FFFFFF" fill-rule="nonzero"></path>
            <circle id="Oval" fill="#B1E5F2" cx="113.807475" cy="79.0462765" r="10"></circle>
        </g>
    </g>
</svg>